<?xml version="1.0" standalone="no"?>
<!DOCTYPE svg PUBLIC "-//W3C//DTD SVG 20010904//EN"
 "http://www.w3.org/TR/2001/REC-SVG-20010904/DTD/svg10.dtd">
<svg version="1.0" xmlns="http://www.w3.org/2000/svg"
 width="300.000000pt" height="296.000000pt" viewBox="0 0 300.000000 296.000000"
 preserveAspectRatio="xMidYMid meet">
<metadata>
Created by potrace 1.16, written by Peter Selinger 2001-2019
</metadata>
<g transform="translate(0.000000,296.000000) scale(0.100000,-0.100000)"
fill="#000000" stroke="none">
<path d="M1351 2682 c-22 -38 -41 -73 -41 -78 0 -19 180 -185 227 -208 1 -1
16 -152 33 -336 17 -184 33 -341 35 -347 6 -18 164 -18 170 0 2 6 11 176 19
377 9 201 19 388 22 416 l5 50 -103 64 c-95 60 -262 130 -308 130 -11 0 -33
-25 -59 -68z"/>
<path d="M254 2456 l-24 -41 22 -15 c13 -8 37 -29 54 -47 47 -47 306 -205 318
-193 6 6 18 10 28 10 23 0 237 -131 238 -145 0 -6 37 -33 83 -61 346 -214 573
-357 577 -364 3 -5 26 -2 50 6 25 9 71 17 104 18 43 1 62 6 72 20 23 33 6 39
-91 33 -50 -3 -97 -2 -104 2 -7 5 -22 123 -42 337 -17 181 -32 340 -35 352 -4
22 -8 23 -52 17 -39 -5 -665 53 -1100 103 l-73 8 -25 -40z m486 -86 c24 -24
26 -67 4 -98 -11 -16 -25 -22 -54 -22 -29 0 -43 6 -54 22 -36 51 -5 118 54
118 17 0 39 -9 50 -20z m305 -35 c14 -13 25 -36 25 -50 0 -28 -40 -75 -64 -75
-55 0 -96 56 -75 102 22 50 77 61 114 23z"/>
<path d="M1849 2409 c-4 -12 -37 -685 -34 -687 7 -8 271 526 285 576 13 47 13
54 0 62 -29 18 -248 61 -251 49z"/>
<path d="M2134 2227 c-39 -42 -77 -110 -189 -336 -97 -196 -136 -285 -127
-288 7 -3 36 -20 64 -39 42 -28 54 -32 63 -22 12 13 221 280 328 419 52 69 86
145 87 196 0 12 -51 50 -131 96 l-46 27 -49 -53z"/>
<path d="M2430 2095 c-30 -25 -57 -50 -59 -57 -2 -7 -96 -131 -208 -276 l-204
-263 20 -42 c11 -23 23 -54 27 -70 3 -15 9 -29 13 -32 4 -2 169 47 366 109
l358 113 54 -23 c62 -28 62 -27 32 72 -49 158 -140 313 -259 438 -40 42 -75
76 -79 76 -3 -1 -31 -21 -61 -45z"/>
<path d="M35 2080 l-26 -41 314 -497 c278 -441 315 -506 336 -577 48 -167 138
-335 243 -450 l45 -49 51 38 c29 21 52 43 52 49 0 6 92 133 205 283 l205 272
-26 46 c-14 26 -28 69 -31 101 -3 31 -11 55 -17 55 -7 0 -104 57 -216 126
-417 258 -449 276 -466 270 -10 -4 -50 15 -108 50 -99 62 -136 95 -136 124 0
21 -244 179 -296 190 -18 4 -49 17 -68 29 l-35 22 -26 -41z m357 -260 c24 -25
29 -36 24 -58 -15 -60 -79 -80 -121 -37 -38 38 -30 84 20 113 31 18 44 14 77
-18z m163 -235 c14 -13 25 -36 25 -50 0 -28 -40 -75 -64 -75 -53 0 -92 51 -75
96 9 26 47 54 72 54 10 0 29 -11 42 -25z m530 -469 c97 -97 -35 -238 -137
-147 -70 62 -24 171 73 171 29 0 47 -7 64 -24z"/>
<path d="M622 2043 c-21 -32 -51 -79 -66 -105 l-27 -46 28 -20 c86 -61 809
-502 817 -499 6 2 39 48 73 103 47 76 59 102 50 111 -7 6 -109 71 -227 144
-118 73 -298 184 -400 247 -101 63 -190 116 -196 119 -7 2 -30 -22 -52 -54z"/>
<path d="M1595 1556 c-56 -26 -116 -87 -141 -143 -10 -22 -17 -66 -17 -105 -3
-238 276 -362 454 -201 115 104 119 284 10 393 -81 81 -205 103 -306 56z m143
-216 l151 -94 -17 -29 c-9 -16 -22 -31 -29 -34 -9 -4 -283 158 -313 184 -8 7
33 74 45 71 6 -2 79 -46 163 -98z"/>
<path d="M2379 1418 l-347 -110 -11 -57 c-19 -97 -77 -176 -167 -229 -8 -5 -4
-56 16 -182 16 -96 43 -266 61 -378 l32 -202 51 -43 c28 -24 56 -47 63 -50 27
-16 211 69 351 163 283 189 446 469 482 827 12 117 5 284 -14 306 -14 17 -131
67 -154 66 -9 -1 -173 -51 -363 -111z m-173 -141 c54 -47 25 -127 -47 -127
-73 0 -104 88 -46 132 30 24 61 22 93 -5z m233 -12 c52 -26 61 -104 17 -143
-67 -61 -168 -6 -152 83 12 63 75 92 135 60z m-294 -160 c49 -48 20 -125 -47
-125 -41 0 -78 34 -78 72 0 36 40 78 75 78 14 0 37 -11 50 -25z m199 -104 c65
-56 21 -161 -67 -161 -34 0 -74 35 -82 71 -19 87 82 148 149 90z m-329 -26
c14 -13 25 -36 25 -50 0 -14 -11 -37 -25 -50 -69 -70 -170 30 -103 102 29 31
72 30 103 -2z m100 -179 c64 -27 77 -106 24 -150 -41 -35 -83 -34 -120 3 -48
49 -37 120 24 146 40 18 32 17 72 1z"/>
<path d="M1280 820 c-126 -168 -199 -274 -207 -301 -7 -23 -15 -50 -18 -59 -4
-13 15 -29 80 -69 54 -33 91 -50 102 -46 10 3 36 22 57 42 31 29 67 95 178
326 76 159 137 291 136 292 -2 1 -21 12 -44 23 -22 11 -46 28 -53 36 -8 9 -19
16 -25 16 -6 0 -99 -117 -206 -260z"/>
<path d="M1712 1003 l-64 -4 -60 -127 c-33 -70 -103 -215 -156 -322 -95 -196
-131 -300 -108 -319 18 -15 183 -61 256 -71 89 -13 254 -12 347 2 l77 11 -42
37 -42 37 -55 354 c-66 421 -64 410 -78 407 -7 -1 -41 -3 -75 -5z"/>
</g>
</svg>
